<svg xmlns="http://www.w3.org/2000/svg" viewBox="0 0 514 290"><style>.svg-scylla-0{fill:#030303}.svg-scylla-1{fill:#ec1c50}</style><g id="Layer_2"><path class="svg-scylla-0" d="M290 65.5v11.2h-14v36.8h-12.4V76.8h-13.8V65.5H290zm44.9 0v48.1h-12.4V94.7h-15.4v18.9h-12.4V65.5h12.4v18.9h15.4V65.5h12.4zM353 75.6v8.9h18.3v10.2H353v8.8h21.1v10.2h-33.5V65.5h33.5v10.1H353zm-68.8 47.9v10.8c-3.8-2.2-7.6-3.5-11.2-3.5-3 0-7.2.9-7.2 4 0 6.1 22.1.9 22.1 20.1 0 8.6-7.9 14.3-17.3 14.3-6.8 0-12.4-1.7-16.6-4.7V153c4.5 3.8 9.5 5.6 14.8 5.6 3.3 0 6.7-1.2 6.7-4 0-6.6-22.1-1.4-22.1-19.4 0-10.5 8.5-14.9 17.8-14.9 4.7-.1 9.2 1.2 13 3.2zm19 21.1c0 11.4 5.2 13.9 10.9 13.9 5 0 9.4-.9 14.7-3.5v10.7c-5 2-10.3 3.4-15.4 3.4-10.3 0-22.5-4.2-22.5-24.6 0-20.3 12.2-24.6 22.5-24.6 5.1 0 10.4 1.4 15.4 3.4V134c-5.3-2.5-9.7-3.5-14.7-3.5-5.7.2-10.9 2.7-10.9 14.1zm78-24l-19.1 27.8v20.2h-12.4v-20.2l-19.1-27.8h15.1l10.2 18.3 10.2-18.3h15.1zm37.1 36.9v11.2h-33.7v-48.1H397v36.9h21.3zm39 0v11.2h-33.7v-48.1H436v36.9h21.3zm52.2 11.2h-13.3l-3.7-11.5h-15.7l-3.7 11.5h-13.3l19.1-48.1h11.7l18.9 48.1zM489.4 148l-4.8-14.9-4.9 14.9h9.7zm-195.6 47.4v24.3c-4.9 2.9-10.9 4.6-17.9 4.6-10.3 0-22.6-4.2-22.6-24.5s12.2-24.6 22.6-24.6c5.7 0 11.6 1.4 16.6 3.6v9.9c-5.5-2.2-10-3-14.7-3-6.3 0-12.1 2.6-12.1 13.9 0 11.4 5.5 13.9 11.7 13.9 1.9 0 4.3-.1 6.6-1.1v-7.9h-8.6v-9.2h18.4zm45.3 28.4h-13.8l-8.9-16.1h-5.1v16.1h-12.4v-48.1h18.9c11.5 0 19.4 5.5 19.4 15.6 0 7.9-4.1 12.7-9.7 14.5l11.6 18zm-20.5-25.4c3.2 0 6.2-2.5 6.2-6.3 0-3.9-3-6.3-6.2-6.3h-7.4v12.6h7.4zm66.2 1.3c0 20.2-12.3 24.5-22.6 24.5s-22.5-4.3-22.5-24.5 12.2-24.5 22.5-24.5 22.6 4.3 22.6 24.5zm-12.4 0c0-11.5-4.9-13.9-10.2-13.9-5.3 0-10.1 2.4-10.1 13.9s4.9 13.9 10.1 13.9c5.3 0 10.2-2.4 10.2-13.9zm57.1-24v27.4c0 13.5-7.6 21.2-20.5 21.2-13 0-20.5-7.7-20.5-21.2v-27.4h12.4v28.8c0 6.1 2.5 9.1 8.1 9.1s8.1-3 8.1-9.1v-28.8h12.4zm43.2 16.9c0 10.7-6.7 16.9-18.4 16.9h-7.1v14.3h-12.4v-48.1h19.5c11.7 0 18.4 6.2 18.4 16.9zm-12.3 0c0-3-1.7-6.8-7.2-6.8h-5.9v13.5h5.9c5.5 0 7.2-3.5 7.2-6.7z"/><path class="svg-scylla-1" d="M111.6 30.8l-53.3 21 54.3 21 53.3-21zM13 88.4L4.5 145l45.4-36.5 8.4-56.7zm.5 114.2l44.8 35.6-8.9-57.5L4.5 145z"/><path class="svg-scylla-1" d="M112.6 259.2l53.3-21-54.3-21-53.3 21zm98.7-57.5l8.5-56.7-45.4 36.5-8.4 56.7z"/><path class="svg-scylla-1" d="M210.8 87.5l-44.9-35.6 9 57.5 44.8 35.7z"/></g></svg>